<svg width="86" height="38" viewBox="0 0 86 38" fill="none" xmlns="http://www.w3.org/2000/svg">
<g clip-path="url(#clip0_0_327)">
<rect width="86" height="38" rx="19" fill="white"/>
<path d="M25.408 13.2H27.76V25H26.464V14.288L26.504 14.304L23.496 25H21.544L18.52 14.296L18.56 14.28V25H17.264V13.2H19.616L22.512 23.904H22.496L25.408 13.2ZM34.2793 25.152C33.4259 25.152 32.6713 24.9627 32.0153 24.584C31.3646 24.2 30.8526 23.6773 30.4793 23.016C30.1113 22.3493 29.9273 21.592 29.9273 20.744C29.9273 19.896 30.1113 19.144 30.4793 18.488C30.8526 17.832 31.3646 17.3173 32.0153 16.944C32.6713 16.5707 33.4259 16.384 34.2793 16.384C35.1326 16.384 35.8846 16.5707 36.5353 16.944C37.1913 17.3173 37.7033 17.832 38.0712 18.488C38.4446 19.144 38.6313 19.896 38.6313 20.744C38.6313 21.592 38.4446 22.3493 38.0712 23.016C37.7033 23.6773 37.1913 24.2 36.5353 24.584C35.8846 24.9627 35.1326 25.152 34.2793 25.152ZM34.2793 23.904C34.8659 23.904 35.3833 23.7733 35.8313 23.512C36.2793 23.2507 36.6286 22.8827 36.8793 22.408C37.1353 21.9333 37.2633 21.3787 37.2633 20.744C37.2633 20.1093 37.1353 19.56 36.8793 19.096C36.6286 18.6267 36.2793 18.2667 35.8313 18.016C35.3833 17.76 34.8659 17.632 34.2793 17.632C33.6979 17.632 33.1806 17.76 32.7273 18.016C32.2793 18.2667 31.9273 18.6267 31.6713 19.096C31.4206 19.56 31.2953 20.1093 31.2953 20.744C31.2953 21.3787 31.4206 21.9333 31.6713 22.408C31.9273 22.8827 32.2793 23.2507 32.7273 23.512C33.1806 23.7733 33.6979 23.904 34.2793 23.904ZM43.9434 25.128C43.682 25.128 43.426 25.0987 43.1754 25.04C42.9247 24.9813 42.698 24.8773 42.4954 24.728C42.298 24.5733 42.1407 24.3573 42.0234 24.08C41.906 23.7973 41.8474 23.4347 41.8474 22.992C41.8474 22.88 41.8474 22.7653 41.8474 22.648C41.8474 22.5253 41.8474 22.3973 41.8474 22.264V17.704H39.7754V16.504H41.1034C41.2847 16.504 41.426 16.4987 41.5274 16.488C41.6287 16.472 41.7007 16.4373 41.7434 16.384C41.7914 16.3253 41.8207 16.2373 41.8314 16.12C41.842 15.9973 41.8474 15.8293 41.8474 15.616V13.688H43.2154V16.504H45.8714V17.704H43.2154V21.824C43.2154 21.9413 43.2154 22.056 43.2154 22.168C43.2154 22.28 43.2154 22.384 43.2154 22.48C43.2154 22.9333 43.2687 23.288 43.3754 23.544C43.4874 23.8 43.7354 23.928 44.1194 23.928C44.274 23.928 44.4207 23.9147 44.5594 23.888C44.698 23.8613 44.802 23.8347 44.8714 23.808V24.992C44.7807 25.024 44.6527 25.0533 44.4874 25.08C44.3274 25.112 44.146 25.128 43.9434 25.128ZM47.6946 25V16.504H49.0386V25H47.6946ZM48.3746 14.552C48.124 14.552 47.9053 14.4827 47.7186 14.344C47.5373 14.2 47.4466 14.0053 47.4466 13.76C47.4466 13.52 47.5373 13.3307 47.7186 13.192C47.9053 13.048 48.124 12.976 48.3746 12.976C48.6253 12.976 48.8413 13.048 49.0226 13.192C49.204 13.3307 49.2946 13.52 49.2946 13.76C49.2946 14.0053 49.204 14.2 49.0226 14.344C48.8413 14.4827 48.6253 14.552 48.3746 14.552ZM55.5918 25.152C54.7384 25.152 53.9838 24.9627 53.3278 24.584C52.6771 24.2 52.1651 23.6773 51.7918 23.016C51.4238 22.3493 51.2398 21.592 51.2398 20.744C51.2398 19.896 51.4238 19.144 51.7918 18.488C52.1651 17.832 52.6771 17.3173 53.3278 16.944C53.9838 16.5707 54.7384 16.384 55.5918 16.384C56.4451 16.384 57.1971 16.5707 57.8478 16.944C58.5038 17.3173 59.0158 17.832 59.3837 18.488C59.7571 19.144 59.9438 19.896 59.9438 20.744C59.9438 21.592 59.7571 22.3493 59.3837 23.016C59.0158 23.6773 58.5038 24.2 57.8478 24.584C57.1971 24.9627 56.4451 25.152 55.5918 25.152ZM55.5918 23.904C56.1784 23.904 56.6958 23.7733 57.1438 23.512C57.5918 23.2507 57.9411 22.8827 58.1918 22.408C58.4478 21.9333 58.5758 21.3787 58.5758 20.744C58.5758 20.1093 58.4478 19.56 58.1918 19.096C57.9411 18.6267 57.5918 18.2667 57.1438 18.016C56.6958 17.76 56.1784 17.632 55.5918 17.632C55.0104 17.632 54.4931 17.76 54.0398 18.016C53.5918 18.2667 53.2398 18.6267 52.9838 19.096C52.7331 19.56 52.6078 20.1093 52.6078 20.744C52.6078 21.3787 52.7331 21.9333 52.9838 22.408C53.2398 22.8827 53.5918 23.2507 54.0398 23.512C54.4931 23.7733 55.0104 23.904 55.5918 23.904ZM68.1478 25V20.928C68.1478 20.6827 68.1478 20.4827 68.1478 20.328C68.1478 20.168 68.1478 20.016 68.1478 19.872C68.1478 19.4293 68.0731 19.0427 67.9238 18.712C67.7744 18.3813 67.5398 18.1253 67.2198 17.944C66.8998 17.7627 66.4811 17.672 65.9638 17.672C65.5104 17.672 65.0891 17.7893 64.6998 18.024C64.3158 18.2533 64.0064 18.5653 63.7718 18.96C63.5424 19.3493 63.4278 19.7867 63.4278 20.272L62.6518 19.976C62.6518 19.3093 62.8144 18.704 63.1398 18.16C63.4704 17.616 63.9078 17.184 64.4518 16.864C65.0011 16.5387 65.5984 16.376 66.2438 16.376C66.8998 16.376 67.4731 16.5013 67.9638 16.752C68.4544 17.0027 68.8331 17.3627 69.0998 17.832C69.3718 18.296 69.5078 18.856 69.5078 19.512C69.5078 19.7467 69.5078 20.0027 69.5078 20.28C69.5078 20.5573 69.5078 20.816 69.5078 21.056V25H68.1478ZM62.0678 25V16.504H63.4278V25H62.0678Z" fill="#391400"/>
</g>
<defs>
<clipPath id="clip0_0_327">
<rect width="86" height="38" fill="white"/>
</clipPath>
</defs>
</svg>
